PathFileType	4	(X/Y/Z)	Run_200 02
DataRate	CameraRate	NumFrames	NumMarkers	Units	OrigDataRate	OrigDataStartFrame	OrigNumFrames
100	100	7	42	mm	100	181	128
Frame#	Time	LASI			RASI			LPSI			RPSI			RTH1			RTH2			RTH3			LTH1			LTH2			LTH3			RTB1			RTB2			RTB3			LTB1			LTB2			LTB3			RCAL			RTOE			RMT5			LCAL			LTOE			LMT5			LACR			RACR			CLAV			C7			RUA1			RUA2			RUA3			RLEL			RMEL			LUA1			LUA2			LUA3			LLEL			LMEL			RFAsuperior			RFAradius			RFAulna			LFAsuperior			LFAradius			LFAulna			
		X1	Y1	Z1	X2	Y2	Z2	X3	Y3	Z3	X4	Y4	Z4	X5	Y5	Z5	X6	Y6	Z6	X7	Y7	Z7	X8	Y8	Z8	X9	Y9	Z9	X10	Y10	Z10	X11	Y11	Z11	X12	Y12	Z12	X13	Y13	Z13	X14	Y14	Z14	X15	Y15	Z15	X16	Y16	Z16	X17	Y17	Z17	X18	Y18	Z18	X19	Y19	Z19	X20	Y20	Z20	X21	Y21	Z21	X22	Y22	Z22	X23	Y23	Z23	X24	Y24	Z24	X25	Y25	Z25	X26	Y26	Z26	X27	Y27	Z27	X28	Y28	Z28	X29	Y29	Z29	X30	Y30	Z30	X31	Y31	Z31	X32	Y32	Z32	X33	Y33	Z33	X34	Y34	Z34	X35	Y35	Z35	X36	Y36	Z36	X37	Y37	Z37	X38	Y38	Z38	X39	Y39	Z39	X40	Y40	Z40	X41	Y41	Z41	X42	Y42	Z42	

165	3.05	671.501969	992.214498	-433.970861	678.6112890000001	999.99733	-163.647263	501.696676	1005.329418	-351.547131	503.23056	1012.23645	-252.837269	597.364029	811.392995	-120.541566	689.279163	714.032203	-139.345514	627.589156	587.953544	-166.371019	631.0312269999999	786.371794	-462.771925	743.014533	684.648491	-453.878739	731.013813	564.823279	-435.750699	655.951651	345.77971	-253.625899	615.862653	299.728769	-189.50396	574.831801	198.000896	-256.080572	696.274133	368.772252	-365.29562	598.819835	365.780837	-429.142232	559.213449	294.791226	-359.869266	416.554839	102.079452	-256.492874	640.91	67.097579	-266.358781	588.980965	58.065982	-177.088294	384.244631	316.417682	-347.205521	487.38568	111.70857	-343.433183	439.712487	147.10314	-430.98223	675.107353	1459.036322	-465.53239	693.782271	1464.473553	-129.168437	738.543676	1397.588718	-269.879185	617.481467	1490.104295	-293.438511	649.1293879999999	1389.190713	-42.925624	577.028608	1318.265715	-56.585627	611.408105	1269.067769	-7.396308	578.319131	1167.791733	28.678545	545.364512	1152.890317	-43.509649	616.010079	1375.235296	-538.946129	552.076779	1300.892731	-505.212192	550.5157400000001	1241.465842	-558.288724	540.9388290000001	1157.658776	-587.0804000000001	518.0556340000001	1150.352524	-514.500885	674.652237	1118.562752	18.376175	806.65712	1054.051259	-41.201634	763.6338929999999	998.073812	-24.639772	633.835253	1093.616699	-571.3771410000001	745.852679	1004.449461	-486.268219	712.599405	958.317648	-531.0182150000001	
166	3.06	671.9716979999999	995.756308	-433.071374	677.682311	1001.070548	-161.988459	502.168456	1008.757367	-351.129376	502.119151	1012.85769	-251.952195	593.618173	812.737742	-120.412741	682.245039	713.481599	-140.442257	615.91089	589.022641	-166.841561	635.306886	790.6502369999999	-463.911857	749.395761	691.592929	-454.715141	739.406417	571.600524	-436.055969	638.925661	345.738867	-254.079615	598.01806	300.056939	-190.031271	555.9257679999999	197.812305	-254.426621	711.284924	373.050371	-365.69261	613.765499	365.480298	-428.356214	578.000408	292.391565	-359.676814	396.845624	103.149174	-256.585908	620.888148	66.95954	-266.348959	568.904804	58.147884	-177.282243	400.454407	304.12849	-347.440362	516.685968	105.920191	-340.980121	468.562635	138.703041	-430.23329	673.480361	1462.159944	-466.255526	694.5494179999999	1468.771264	-130.412977	738.325588	1401.328641	-271.1798	616.761915	1492.885794	-293.734425	651.725201	1393.631309	-43.270292	580.420243	1321.622339	-54.958483	615.886136	1273.193587	-6.840527	585.4122180000001	1171.579228	30.289288	552.15854	1155.520838	-41.684782	611.214107	1380.202767	-539.140309	546.819868	1307.677073	-502.074675	540.464886	1249.164507	-556.602072	527.158583	1165.920712	-586.402184	507.190532	1158.811309	-512.7578099999999	683.211277	1125.207439	18.912146	816.076868	1064.26188	-42.387986	775.219677	1007.219785	-24.798996	618.784504	1098.529114	-574.929799	731.829973	1006.738403	-493.560789	695.339744	961.621685	-536.694384	
167	3.07	672.710323	999.998003	-432.172879	676.841312	1002.823359	-160.076768	502.901987	1012.872423	-350.814129	501.781624	1014.803931	-251.023117	590.020475	814.202006	-120.197668	674.865371	713.49681	-141.784141	603.4947079999999	591.033357	-167.972814	639.556735	795.909298	-465.269703	755.364192	699.203615	-455.54129	746.543976	578.612689	-436.071789	621.5724269999999	346.562117	-254.380161	579.8556170000001	301.084845	-190.430247	537.533987	198.934644	-253.158184	725.426434	377.613426	-365.92342	628.139766	364.56294	-427.36707	596.889516	289.559525	-359.618709	377.161772	104.662354	-256.754965	600.920569	66.75203	-266.524941	548.809738	57.770742	-177.71126	417.299717	289.765966	-347.171798	548.824939	101.561889	-340.072561	498.790444	130.051368	-429.391911	672.023274	1466.005873	-467.07896	695.456583	1474.009488	-132.022859	738.426682	1405.881467	-272.64471	616.311096	1496.350891	-294.259094	653.467204	1399.269886	-43.92412	582.75577	1326.488477	-53.66511	619.980612	1278.370905	-6.638848	591.551381	1176.630241	31.271401	558.114045	1159.569787	-40.604437	606.164618	1386.39357	-539.432173	541.770884	1315.675258	-499.179107	530.579465	1258.250219	-555.658539	513.737161	1175.759554	-586.072614	496.104665	1168.904786	-511.483468	690.72569	1133.269913	19.113566	824.494475	1076.019398	-43.562093	785.904631	1017.957027	-24.937795	604.27536	1106.249222	-577.956901	718.076606	1012.407455	-500.517854	678.8532290000001	967.743275	-541.436664	
168	3.08	673.671417	1004.910484	-431.443097	676.693867	1005.145484	-158.830326	503.870241	1017.720997	-350.731986	502.708692	1018.362711	-250.550071	586.157334	816.15851	-120.54872	667.254875	714.182673	-143.27735	590.7672209999999	593.943812	-169.509791	643.69497	802.0147040000001	-466.847479	760.641787	707.222227	-456.090938	752.578999	585.811506	-435.924966	604.025269	348.302726	-254.443912	561.730331	302.938461	-190.544383	519.638646	201.483051	-252.858077	738.739318	382.188565	-365.889007	642.1443	362.961672	-426.297558	615.928366	286.289433	-359.571794	357.705571	107.088169	-256.806077	581.089103	66.475504	-266.918188	528.84019	57.207125	-178.306409	435.285279	273.428263	-346.251926	583.268502	98.725413	-340.595124	529.879174	121.161854	-428.52652	670.5149740000001	1470.559421	-467.930113	696.550554	1479.907364	-133.872167	738.806816	1411.11073	-274.295538	616.116282	1500.405797	-295.007494	654.771172	1405.707292	-44.805848	584.528654	1332.497041	-52.950742	623.682918	1284.346415	-6.724905	596.78334	1182.577657	31.797471	563.316911	1164.717828	-40.036873	600.964678	1393.667241	-539.745016	536.866631	1324.706006	-496.832988	521.244315	1268.471806	-555.3174770000001	501.121559	1186.825846	-585.939123	485.082982	1180.269303	-510.670351	697.166666	1142.211178	19.131275	831.856207	1088.814076	-44.731755	795.6047610000001	1029.751968	-25.253976	590.7440350000001	1116.053213	-580.451098	704.9045180000001	1020.490772	-506.805038	663.488872	975.99125	-545.410029	
169	3.09	674.833244	1010.452285	-431.0089	677.675378	1007.686143	-159.110905	505.018833	1023.225851	-350.927631	504.646782	1023.242948	-250.688793	581.932904	819.028297	-121.858354	659.524828	715.600659	-144.74481	578.135853	597.788732	-171.050295	647.680855	808.725402	-468.564072	765.1007520000001	715.388952	-456.345132	757.622108	593.192482	-435.777881	586.400292	350.9752	-254.209239	543.885627	305.733442	-190.320958	501.815029	205.051662	-253.118322	751.282832	386.54571	-365.562731	655.958627	360.632588	-425.285611	635.1602360000001	282.575767	-359.441581	338.825681	110.934428	-256.536353	561.470109	66.30089099999999	-267.37678	509.124188	56.886276	-178.915887	454.840855	255.7036	-344.855847	618.438628	96.33712800000001	-341.214507	561.44546	111.976605	-427.676982	668.824378	1475.763164	-468.737329	697.842832	1486.216314	-135.784762	739.387159	1416.876023	-276.134621	616.130834	1504.944388	-295.914086	656.061257	1412.599153	-45.855682	586.213426	1339.24554	-52.692443	627.028691	1290.903146	-7.016323	601.254417	1189.12794	32.040873	567.879315	1170.704302	-39.77914	595.833844	1401.817287	-539.99098	532.065642	1334.540601	-495.195516	512.6739700000001	1279.532367	-555.326951	489.481715	1198.743595	-585.8633620000001	474.558044	1192.492841	-510.211274	702.657631	1151.640728	19.025744	838.243029	1102.171691	-45.899502	804.269168	1042.122123	-25.865742	578.299983	1127.14672	-582.539621	692.487265	1030.013804	-512.252911	649.396222	985.647038	-548.903858	
170	3.1	676.183301	1016.509984	-430.883079	679.707322	1010.11504	-161.013438	506.287064	1029.194489	-351.386649	506.876572	1028.840251	-251.193757	577.560109	822.902344	-123.819813	651.812925	717.774533	-145.985152	565.908293	602.608779	-172.203756	651.417002	815.7809119999999	-470.215445	768.800892	723.475083	-456.488978	761.770298	600.685298	-435.819799	568.946238	354.599796	-253.596476	526.369693	309.568105	-189.689743	483.909124	209.251332	-253.170458	763.022263	390.597605	-364.99647	669.675646	357.600344	-424.436966	654.604722	278.452895	-359.118006	320.837502	116.490019	-255.939604	542.072749	66.34434899999999	-267.637033	489.661663	56.975618	-179.393036	476.260859	237.456232	-343.360296	653.132958	93.29489599999999	-340.969536	593.564941	102.752485	-426.830482	667.003194	1481.487113	-469.465988	699.290114	1492.724691	-137.666914	740.0954410000001	1423.020233	-278.122303	616.296739	1509.835516	-296.844591	657.578589	1419.696021	-47.031405	588.068652	1346.381161	-52.635906	630.0999890000001	1297.850724	-7.413323	605.149106	1196.070169	32.136234	571.844804	1177.284218	-39.687316	591.054116	1410.592569	-540.0785519999999	527.402962	1344.89436	-494.2417	504.945488	1291.092691	-555.4373409999999	478.885595	1211.174718	-585.742791	465.048701	1205.197409	-509.898245	707.348486	1161.296166	18.793475	843.758699	1115.675796	-47.08284	811.8876	1054.664483	-26.787554	566.895394	1138.912728	-584.306708	680.953109	1040.230535	-516.8741649999999	636.55967	996.0833280000001	-552.074044	
171	3.11	677.700482	1022.8678	-430.97667	682.253748	1012.451868	-163.73613	507.713264	1035.409098	-352.045306	508.91096	1034.693833	-251.794312	573.3815509999999	827.589202	-125.682949	644.289149	720.689027	-146.828874	554.301615	608.338407	-172.735512	654.783775	823.005261	-471.573923	771.8584049999999	731.297821	-456.646366	765.096533	608.125893	-436.139646	552.106591	359.161365	-252.480258	509.216328	314.448853	-188.470389	466.357986	214.045589	-252.553813	773.7937020000001	394.373394	-364.281155	683.2679419999999	353.978606	-423.795333	674.246641	274.069654	-358.516706	303.882643	123.71455	-255.163293	522.833902	66.448826	-267.59473	470.372539	57.392795	-179.61859	499.619104	219.351215	-342.029299	687.367513	89.520668	-340.091183	626.717249	94.20455200000001	-425.933588	665.264924	1487.541481	-470.132191	700.825857	1499.260173	-139.522884	740.8866839999999	1429.377883	-280.181854	616.561688	1514.922139	-297.678856	659.39062	1426.81508	-48.292951	590.16141	1353.649861	-52.636269	632.997537	1305.00847	-7.833931	608.62107	1203.243166	32.16888	575.224547	1184.211744	-39.685616	586.915508	1419.731507	-539.970335	523.020244	1355.507623	-493.82213	498.108266	1302.83303	-555.4908359999999	469.4014	1223.813432	-585.486717	456.848411	1218.071083	-509.492784	711.367815	1170.976589	18.430193	848.451591	1128.987504	-48.328861	818.506759	1067.060743	-27.975494	556.4415749999999	1150.870531	-585.793015	670.450787	1050.698024	-520.820631	624.913646	1006.836925	-554.880233	
